<svg xmlns="http://www.w3.org/2000/svg" xmlns:xlink="http://www.w3.org/1999/xlink" width="800" zoomAndPan="magnify" viewBox="0 0 600 599.999999" height="800" preserveAspectRatio="xMidYMid meet" version="1.2"><defs><clipPath id="7d7074563c"><path d="M 0 1 L 600 1 L 600 586.5 L 0 586.5 Z M 0 1 "/></clipPath></defs><g id="e98b93cf1e"><g clip-rule="nonzero" clip-path="url(#7d7074563c)"><path style=" stroke:none;fill-rule:nonzero;fill:#e55330;fill-opacity:1;" d="M 600.015625 586.296875 L 0 586.296875 L 0 2.183594 C 24.410156 0.0429688 50.121094 5.128906 71.347656 17.042969 C 120.097656 44.398438 149.292969 96.480469 171.136719 147.941406 C 181.46875 172.277344 190.875 197.347656 206.300781 218.8125 C 221.726562 240.277344 244.433594 258.132812 270.722656 260.925781 C 306.957031 264.769531 341.425781 239.890625 377.765625 242.675781 C 413.558594 245.425781 442.503906 275.132812 456.253906 308.300781 C 470 341.46875 471.800781 378.132812 475.519531 413.84375 C 479.234375 449.554688 485.632812 486.539062 506.6875 515.617188 C 529.742188 547.476562 566.589844 565.019531 600.015625 586.296875 Z M 600.015625 586.296875 "/></g></g></svg>