<svg xmlns="http://www.w3.org/2000/svg" xmlns:xlink="http://www.w3.org/1999/xlink" width="800" zoomAndPan="magnify" viewBox="0 0 600 599.999999" height="800" preserveAspectRatio="xMidYMid meet" version="1.2"><g id="9223d3d016"><path style=" stroke:none;fill-rule:nonzero;fill:#ca3c4a;fill-opacity:1;" d="M -0.015625 599.917969 L 600 599.917969 L 600 15.804688 C 575.589844 13.664062 549.878906 18.75 528.652344 30.664062 C 479.902344 58.015625 450.707031 110.101562 428.863281 161.5625 C 418.53125 185.894531 409.125 210.964844 393.699219 232.429688 C 378.273438 253.898438 355.566406 271.753906 329.277344 274.546875 C 293.042969 278.390625 258.574219 253.511719 222.234375 256.296875 C 186.441406 259.042969 157.496094 288.753906 143.746094 321.921875 C 130 355.085938 128.199219 391.753906 124.480469 427.464844 C 120.765625 463.175781 114.367188 500.15625 93.3125 529.238281 C 70.257812 561.09375 33.410156 578.640625 -0.015625 599.917969 Z M -0.015625 599.917969 "/></g></svg>