<svg xmlns="http://www.w3.org/2000/svg" xmlns:xlink="http://www.w3.org/1999/xlink" width="800" zoomAndPan="magnify" viewBox="0 0 600 599.999999" height="800" preserveAspectRatio="xMidYMid meet" version="1.2"><defs><clipPath id="b436ba3e50"><path d="M 0 131.929688 L 599 131.929688 L 599 364 L 0 364 Z M 0 131.929688 "/></clipPath><clipPath id="82fd780c23"><path d="M 0 236 L 599 236 L 599 467.929688 L 0 467.929688 Z M 0 236 "/></clipPath></defs><g id="26b4b61632"><g clip-rule="nonzero" clip-path="url(#b436ba3e50)"><path style=" stroke:none;fill-rule:nonzero;fill:#ca3c4a;fill-opacity:1;" d="M 598.367188 363.367188 L 429.214844 363.367188 C 428.917969 363.339844 428.617188 363.335938 428.316406 363.34375 C 428.023438 363.3125 427.734375 363.28125 427.441406 363.273438 L 427.332031 363.273438 L 427.222656 363.253906 L 427.007812 363.21875 C 426.867188 363.199219 426.722656 363.183594 426.578125 363.171875 C 425.453125 363.007812 424.351562 362.742188 423.277344 362.371094 C 421.082031 361.605469 419.109375 360.460938 417.351562 358.941406 C 415.566406 357.410156 414.128906 355.605469 413.027344 353.527344 C 412.496094 352.519531 412.0625 351.472656 411.730469 350.386719 C 411.394531 349.292969 411.167969 348.175781 411.050781 347.039062 C 411.039062 346.964844 411.03125 346.894531 411.035156 346.820312 L 411.023438 346.597656 C 411.023438 346.453125 411.003906 346.308594 410.984375 346.164062 C 410.96875 346.015625 410.964844 345.867188 410.972656 345.714844 C 410.972656 345.566406 410.972656 345.417969 410.957031 345.269531 L 410.941406 345.042969 L 410.941406 254.257812 L 410.917969 253 L 410.851562 250.480469 C 410.835938 250.058594 410.828125 249.640625 410.804688 249.21875 L 410.71875 247.957031 L 410.519531 245.4375 C 410.453125 244.59375 410.390625 243.757812 410.277344 242.917969 L 409.960938 240.398438 L 409.792969 239.140625 L 409.707031 238.511719 L 409.605469 237.886719 C 409.316406 236.21875 409.027344 234.546875 408.695312 232.886719 C 408.328125 231.230469 407.945312 229.578125 407.546875 227.929688 C 407.097656 226.292969 406.632812 224.660156 406.148438 223.03125 C 405.632812 221.414062 405.082031 219.808594 404.53125 218.203125 C 403.664062 215.816406 402.71875 213.460938 401.6875 211.140625 C 400.65625 208.820312 399.546875 206.539062 398.351562 204.296875 C 397.160156 202.054688 395.890625 199.859375 394.542969 197.707031 C 393.195312 195.554688 391.773438 193.453125 390.277344 191.402344 C 388.777344 189.347656 387.210938 187.351562 385.574219 185.414062 C 383.9375 183.472656 382.230469 181.59375 380.460938 179.773438 C 378.6875 177.953125 376.855469 176.199219 374.960938 174.507812 C 373.0625 172.820312 371.113281 171.199219 369.101562 169.648438 C 367.089844 168.09375 365.027344 166.617188 362.914062 165.210938 C 360.796875 163.804688 358.636719 162.476562 356.425781 161.226562 C 354.21875 159.972656 351.96875 158.800781 349.675781 157.707031 C 347.382812 156.613281 345.054688 155.601562 342.691406 154.675781 C 340.328125 153.746094 337.933594 152.902344 335.511719 152.144531 C 333.085938 151.386719 330.640625 150.714844 328.167969 150.128906 C 325.699219 149.542969 323.210938 149.046875 320.703125 148.636719 C 318.199219 148.230469 315.679688 147.910156 313.152344 147.679688 L 310.628906 147.480469 C 309.789062 147.421875 308.945312 147.347656 308.109375 147.328125 L 305.585938 147.261719 L 304.328125 147.234375 L 303.699219 147.222656 L 0.289062 147.222656 L 0.289062 131.925781 L 303.746094 131.925781 L 304.464844 131.941406 L 305.902344 131.96875 C 306.859375 131.988281 307.816406 132.015625 308.777344 132.050781 C 309.730469 132.070312 310.695312 132.15625 311.652344 132.21875 C 312.613281 132.28125 313.574219 132.363281 314.53125 132.441406 C 317.421875 132.707031 320.296875 133.074219 323.15625 133.542969 C 326.019531 134.011719 328.859375 134.578125 331.683594 135.25 C 334.503906 135.917969 337.296875 136.6875 340.066406 137.554688 C 342.832031 138.421875 345.566406 139.386719 348.265625 140.445312 C 350.964844 141.507812 353.621094 142.660156 356.238281 143.910156 C 358.855469 145.15625 361.425781 146.496094 363.949219 147.925781 C 366.472656 149.359375 368.941406 150.875 371.355469 152.480469 C 373.769531 154.085938 376.125 155.773438 378.421875 157.546875 C 380.71875 159.316406 382.949219 161.167969 385.113281 163.097656 C 387.277344 165.027344 389.371094 167.03125 391.394531 169.105469 C 393.417969 171.183594 395.367188 173.332031 397.238281 175.546875 C 399.109375 177.761719 400.898438 180.039062 402.609375 182.382812 C 404.320312 184.722656 405.945312 187.125 407.484375 189.582031 C 409.027344 192.039062 410.476562 194.546875 411.839844 197.105469 C 413.203125 199.664062 414.472656 202.269531 415.652344 204.917969 C 416.832031 207.570312 417.914062 210.257812 418.902344 212.984375 C 419.542969 214.8125 420.167969 216.648438 420.753906 218.496094 C 421.304688 220.359375 421.835938 222.222656 422.351562 224.09375 C 422.8125 225.976562 423.25 227.863281 423.664062 229.757812 C 424.046875 231.65625 424.378906 233.566406 424.703125 235.472656 L 424.824219 236.1875 L 424.925781 236.902344 L 425.125 238.339844 C 425.25 239.296875 425.371094 240.257812 425.480469 241.214844 C 425.605469 242.175781 425.683594 243.132812 425.761719 244.09375 C 425.839844 245.054688 425.910156 246.011719 425.980469 246.972656 L 426.078125 248.414062 C 426.101562 248.890625 426.113281 249.371094 426.128906 249.847656 C 426.160156 250.808594 426.1875 251.765625 426.207031 252.722656 L 426.230469 254.160156 L 426.242188 254.839844 L 426.242188 345.023438 C 426.25 345.039062 426.253906 345.054688 426.253906 345.070312 C 426.261719 345.101562 426.261719 345.132812 426.253906 345.164062 C 426.253906 345.195312 426.230469 345.230469 426.253906 345.253906 C 426.265625 345.28125 426.269531 345.308594 426.269531 345.335938 C 426.273438 345.347656 426.273438 345.363281 426.269531 345.378906 C 426.269531 345.390625 426.253906 345.40625 426.269531 345.417969 C 426.28125 345.59375 426.316406 345.761719 426.375 345.925781 C 426.425781 346.085938 426.492188 346.242188 426.574219 346.390625 C 426.769531 346.75 427.023438 347.0625 427.335938 347.332031 C 427.617188 347.578125 427.933594 347.765625 428.289062 347.890625 C 428.445312 347.945312 428.609375 347.988281 428.773438 348.015625 C 428.796875 348.007812 428.820312 348.007812 428.84375 348.015625 L 428.882812 348.027344 L 428.917969 348.027344 C 428.976562 348.019531 429.03125 348.023438 429.082031 348.046875 C 429.144531 348.023438 429.210938 348.023438 429.273438 348.046875 L 598.367188 348.046875 Z M 598.367188 363.367188 "/></g><path style=" stroke:none;fill-rule:nonzero;fill:#ff763d;fill-opacity:1;" d="M 598.367188 389.503906 L 429.152344 389.503906 C 428.449219 389.480469 427.757812 389.464844 427.042969 389.453125 L 424.945312 389.296875 L 424.683594 389.277344 L 424.421875 389.242188 L 423.902344 389.171875 L 422.859375 389.042969 C 418.6875 388.4375 414.683594 387.261719 410.847656 385.511719 C 407.007812 383.765625 403.492188 381.515625 400.300781 378.761719 C 396.003906 375.066406 392.535156 370.714844 389.890625 365.703125 C 387.253906 360.710938 385.640625 355.402344 385.050781 349.785156 C 385.019531 349.613281 385.015625 349.4375 385.003906 349.261719 L 384.964844 348.738281 L 384.882812 347.691406 C 384.84375 347.339844 384.851562 346.988281 384.839844 346.636719 L 384.8125 345.582031 L 384.796875 345.054688 L 384.796875 254.390625 L 384.726562 251.519531 C 384.726562 251.199219 384.710938 250.882812 384.695312 250.5625 L 384.625 249.605469 L 384.480469 247.695312 C 384.433594 247.058594 384.386719 246.417969 384.296875 245.785156 L 384.058594 243.878906 L 383.933594 242.925781 L 383.859375 242.453125 L 383.777344 241.980469 C 383.554688 240.71875 383.339844 239.453125 383.089844 238.191406 C 382.804688 236.941406 382.515625 235.691406 382.222656 234.441406 C 381.878906 233.207031 381.527344 231.972656 381.171875 230.738281 C 380.773438 229.519531 380.359375 228.304688 379.945312 227.089844 C 379.289062 225.285156 378.574219 223.503906 377.792969 221.746094 C 377.011719 219.988281 376.171875 218.261719 375.269531 216.566406 C 374.367188 214.867188 373.40625 213.203125 372.386719 211.574219 C 371.363281 209.945312 370.289062 208.355469 369.15625 206.804688 C 368.023438 205.25 366.835938 203.738281 365.597656 202.269531 C 364.355469 200.800781 363.066406 199.378906 361.726562 198 C 360.386719 196.625 358.996094 195.296875 357.5625 194.015625 C 356.128906 192.738281 354.652344 191.511719 353.128906 190.335938 C 351.609375 189.160156 350.046875 188.042969 348.445312 186.980469 C 346.84375 185.914062 345.207031 184.910156 343.535156 183.960938 C 341.863281 183.011719 340.160156 182.125 338.425781 181.296875 C 336.691406 180.46875 334.929688 179.703125 333.140625 179.003906 C 331.351562 178.300781 329.539062 177.660156 327.707031 177.085938 C 325.871094 176.511719 324.019531 176.003906 322.148438 175.558594 C 320.277344 175.117188 318.394531 174.742188 316.496094 174.429688 C 314.601562 174.121094 312.695312 173.878906 310.78125 173.703125 L 308.867188 173.558594 C 308.230469 173.515625 307.59375 173.449219 306.957031 173.441406 L 305.042969 173.390625 L 304.085938 173.367188 L 0.289062 173.367188 L 0.289062 158.078125 L 304.226562 158.078125 L 305.359375 158.101562 L 307.628906 158.167969 C 308.382812 158.179688 309.140625 158.253906 309.898438 158.304688 L 312.167969 158.476562 C 314.441406 158.6875 316.703125 158.976562 318.957031 159.34375 C 321.207031 159.714844 323.445312 160.164062 325.664062 160.691406 C 327.886719 161.21875 330.085938 161.824219 332.265625 162.507812 C 334.441406 163.191406 336.59375 163.949219 338.71875 164.785156 C 340.84375 165.621094 342.933594 166.53125 344.996094 167.511719 C 347.054688 168.496094 349.078125 169.550781 351.0625 170.675781 C 353.046875 171.804688 354.992188 173 356.894531 174.261719 C 358.792969 175.527344 360.648438 176.855469 362.457031 178.25 C 364.261719 179.644531 366.019531 181.101562 367.722656 182.621094 C 369.425781 184.140625 371.074219 185.714844 372.667969 187.351562 C 374.257812 188.988281 375.792969 190.675781 377.265625 192.421875 C 378.738281 194.164062 380.148438 195.957031 381.496094 197.800781 C 382.839844 199.644531 384.121094 201.535156 385.332031 203.46875 C 386.546875 205.402344 387.6875 207.375 388.761719 209.390625 C 389.835938 211.40625 390.835938 213.457031 391.765625 215.542969 C 392.691406 217.625 393.546875 219.742188 394.324219 221.886719 C 394.820312 223.332031 395.320312 224.773438 395.78125 226.226562 C 396.207031 227.6875 396.625 229.15625 397.03125 230.628906 C 397.386719 232.109375 397.730469 233.59375 398.058594 235.082031 C 398.363281 236.578125 398.617188 238.074219 398.878906 239.578125 L 398.976562 240.140625 L 399.199219 241.839844 L 399.484375 244.101562 C 399.585938 244.855469 399.644531 245.609375 399.703125 246.367188 L 399.875 248.636719 L 399.953125 249.769531 C 399.972656 250.148438 399.980469 250.527344 399.996094 250.90625 L 400.054688 253.171875 L 400.074219 254.304688 L 400.085938 254.851562 L 400.085938 345.042969 L 400.101562 345.390625 C 400.101562 345.625 400.117188 345.859375 400.121094 346.09375 C 400.117188 346.324219 400.125 346.558594 400.144531 346.789062 C 400.167969 347.019531 400.1875 347.25 400.203125 347.484375 L 400.226562 347.828125 C 400.226562 347.941406 400.238281 348.058594 400.253906 348.171875 C 400.441406 349.996094 400.804688 351.78125 401.34375 353.53125 C 401.875 355.277344 402.566406 356.960938 403.417969 358.574219 C 405.160156 361.871094 407.441406 364.734375 410.269531 367.160156 C 412.359375 368.964844 414.660156 370.441406 417.171875 371.585938 C 419.683594 372.734375 422.304688 373.503906 425.035156 373.898438 C 425.265625 373.925781 425.492188 373.953125 425.71875 373.984375 L 426.058594 374.035156 L 426.230469 374.058594 L 426.402344 374.058594 C 426.867188 374.082031 427.328125 374.125 427.800781 374.164062 C 428.265625 374.164062 428.730469 374.175781 429.195312 374.199219 L 598.367188 374.199219 Z M 598.367188 389.503906 "/><path style=" stroke:none;fill-rule:nonzero;fill:#f04c26;fill-opacity:1;" d="M 598.367188 415.644531 L 429.085938 415.644531 L 425.761719 415.5625 C 424.65625 415.492188 423.550781 415.398438 422.445312 415.316406 L 422.03125 415.28125 L 421.617188 415.230469 L 420.792969 415.128906 L 419.140625 414.929688 C 417.21875 414.648438 415.308594 414.292969 413.414062 413.855469 C 411.519531 413.417969 409.644531 412.90625 407.792969 412.316406 C 405.941406 411.722656 404.117188 411.058594 402.320312 410.316406 C 400.523438 409.574219 398.761719 408.761719 397.03125 407.875 C 395.300781 406.984375 393.613281 406.027344 391.960938 405.003906 C 390.3125 403.976562 388.707031 402.882812 387.144531 401.722656 C 385.585938 400.5625 384.074219 399.339844 382.617188 398.058594 C 381.15625 396.773438 379.753906 395.429688 378.40625 394.03125 C 377.054688 392.632812 375.765625 391.179688 374.539062 389.671875 C 373.308594 388.164062 372.144531 386.609375 371.046875 385.007812 C 369.945312 383.40625 368.914062 381.761719 367.949219 380.074219 C 366.984375 378.382812 366.09375 376.660156 365.269531 374.898438 C 364.449219 373.136719 363.703125 371.34375 363.027344 369.519531 C 362.355469 367.699219 361.757812 365.847656 361.234375 363.976562 C 360.714844 362.105469 360.269531 360.214844 359.90625 358.304688 C 359.542969 356.394531 359.257812 354.472656 359.050781 352.539062 C 359.011719 352.265625 358.996094 351.988281 358.972656 351.710938 L 358.910156 350.882812 L 358.78125 349.222656 C 358.730469 348.671875 358.730469 348.117188 358.714844 347.5625 L 358.671875 345.898438 L 358.652344 345.070312 L 358.652344 254.523438 L 358.632812 253.871094 L 358.601562 252.5625 C 358.601562 252.347656 358.601562 252.128906 358.582031 251.910156 L 358.53125 251.261719 L 358.433594 249.957031 C 358.402344 249.523438 358.375 249.089844 358.308594 248.660156 L 358.0625 246.714844 L 358.023438 246.394531 L 357.964844 246.074219 C 357.429688 242.628906 356.566406 239.265625 355.375 235.992188 C 354.484375 233.535156 353.425781 231.152344 352.199219 228.847656 C 350.96875 226.539062 349.585938 224.332031 348.046875 222.222656 C 346.503906 220.109375 344.824219 218.117188 343 216.246094 C 341.179688 214.375 339.234375 212.640625 337.164062 211.042969 C 335.097656 209.445312 332.925781 208.003906 330.65625 206.714844 C 328.382812 205.425781 326.03125 204.300781 323.597656 203.34375 C 321.167969 202.390625 318.679688 201.609375 316.136719 201.003906 C 313.597656 200.402344 311.023438 199.980469 308.421875 199.738281 L 307.121094 199.640625 C 306.6875 199.613281 306.253906 199.558594 305.816406 199.558594 L 303.183594 199.5 L 0.289062 199.5 L 0.289062 184.207031 L 303.566406 184.207031 L 303.980469 184.21875 L 306.476562 184.277344 C 307.027344 184.277344 307.582031 184.34375 308.132812 184.382812 L 309.792969 184.507812 C 311.449219 184.664062 313.101562 184.875 314.746094 185.144531 C 316.386719 185.414062 318.019531 185.742188 319.640625 186.128906 C 321.261719 186.515625 322.863281 186.957031 324.453125 187.457031 C 326.042969 187.953125 327.613281 188.507812 329.164062 189.117188 C 330.710938 189.730469 332.238281 190.390625 333.742188 191.109375 C 335.242188 191.828125 336.71875 192.597656 338.167969 193.417969 C 339.617188 194.242188 341.035156 195.113281 342.421875 196.035156 C 343.808594 196.957031 345.160156 197.929688 346.480469 198.945312 C 347.796875 199.964844 349.078125 201.027344 350.320312 202.132812 C 351.566406 203.242188 352.769531 204.394531 353.929688 205.585938 C 355.089844 206.78125 356.210938 208.011719 357.285156 209.285156 C 358.359375 210.558594 359.386719 211.867188 360.371094 213.210938 C 361.351562 214.554688 362.285156 215.933594 363.171875 217.34375 C 364.058594 218.753906 364.890625 220.195312 365.675781 221.664062 C 366.457031 223.132812 367.1875 224.628906 367.867188 226.152344 C 368.542969 227.671875 369.167969 229.214844 369.734375 230.78125 C 370.09375 231.835938 370.457031 232.886719 370.796875 233.941406 L 371.707031 237.148438 L 372.457031 240.394531 C 372.675781 241.484375 372.855469 242.585938 373.058594 243.671875 L 373.128906 244.070312 L 373.183594 244.484375 L 373.289062 245.3125 L 373.488281 246.960938 C 373.566406 247.511719 373.601562 248.066406 373.644531 248.617188 L 373.769531 250.277344 L 373.832031 251.105469 C 373.847656 251.382812 373.851562 251.660156 373.859375 251.9375 L 373.898438 253.597656 L 373.921875 254.429688 L 373.921875 345.035156 L 373.9375 345.691406 L 373.972656 346.996094 C 373.984375 347.433594 373.972656 347.871094 374.027344 348.300781 L 374.125 349.605469 L 374.171875 350.253906 C 374.191406 350.472656 374.199219 350.691406 374.234375 350.90625 C 374.96875 357.902344 376.980469 364.515625 380.261719 370.738281 C 381.273438 372.664062 382.394531 374.527344 383.625 376.320312 C 384.855469 378.117188 386.1875 379.832031 387.621094 381.46875 C 389.054688 383.105469 390.582031 384.65625 392.195312 386.113281 C 393.8125 387.570312 395.511719 388.925781 397.285156 390.183594 C 399.0625 391.441406 400.910156 392.589844 402.820312 393.628906 C 404.734375 394.667969 406.699219 395.589844 408.722656 396.394531 C 410.742188 397.203125 412.804688 397.886719 414.90625 398.449219 C 417.007812 399.011719 419.136719 399.449219 421.292969 399.761719 L 422.585938 399.925781 L 423.234375 400.011719 L 423.554688 400.050781 L 423.882812 400.078125 L 426.488281 400.277344 L 429.101562 400.34375 L 598.367188 400.34375 Z M 598.367188 415.644531 "/><path style=" stroke:none;fill-rule:nonzero;fill:#ea6236;fill-opacity:1;" d="M 598.367188 441.785156 L 429.027344 441.785156 C 427.515625 441.757812 426.003906 441.71875 424.492188 441.667969 C 422.976562 441.582031 421.464844 441.460938 419.953125 441.335938 L 419.386719 441.289062 L 418.820312 441.222656 L 417.6875 441.082031 L 415.425781 440.789062 C 412.789062 440.410156 410.171875 439.921875 407.574219 439.324219 C 404.976562 438.726562 402.410156 438.023438 399.871094 437.210938 C 397.332031 436.402344 394.832031 435.488281 392.367188 434.472656 C 389.902344 433.457031 387.488281 432.339844 385.117188 431.125 C 382.742188 429.910156 380.425781 428.597656 378.164062 427.191406 C 375.902344 425.78125 373.699219 424.285156 371.5625 422.695312 C 369.421875 421.105469 367.351562 419.429688 365.351562 417.671875 C 363.351562 415.910156 361.425781 414.070312 359.578125 412.152344 C 357.730469 410.230469 355.964844 408.238281 354.28125 406.171875 C 352.59375 404.109375 351 401.976562 349.492188 399.78125 C 347.984375 397.582031 346.570312 395.328125 345.246094 393.011719 C 343.925781 390.699219 342.703125 388.332031 341.578125 385.917969 C 340.449219 383.503906 339.425781 381.046875 338.503906 378.546875 C 337.582031 376.046875 336.761719 373.511719 336.046875 370.945312 C 335.335938 368.378906 334.726562 365.785156 334.230469 363.167969 C 333.730469 360.550781 333.339844 357.914062 333.058594 355.265625 C 333.007812 354.890625 332.980469 354.511719 332.949219 354.132812 L 332.859375 352.996094 L 332.691406 350.726562 C 332.625 349.96875 332.617188 349.21875 332.59375 348.460938 L 332.535156 346.191406 L 332.515625 345.058594 L 332.515625 254.855469 C 332.515625 254.78125 332.515625 254.785156 332.515625 254.746094 L 332.515625 254.660156 L 332.5 254.308594 C 332.5 254.074219 332.488281 253.839844 332.484375 253.609375 C 332.484375 253.492188 332.484375 253.375 332.484375 253.257812 L 332.453125 252.914062 C 332.429688 252.679688 332.414062 252.453125 332.398438 252.222656 C 332.394531 251.988281 332.371094 251.761719 332.335938 251.53125 C 332.300781 251.304688 332.273438 251.078125 332.246094 250.847656 L 332.207031 250.507812 L 332.191406 250.335938 L 332.15625 250.167969 C 331.878906 248.363281 331.425781 246.601562 330.796875 244.886719 C 330.164062 243.15625 329.378906 241.5 328.433594 239.917969 C 327.488281 238.335938 326.40625 236.855469 325.183594 235.480469 C 323.960938 234.101562 322.621094 232.847656 321.164062 231.722656 C 319.703125 230.597656 318.15625 229.613281 316.511719 228.78125 C 313.222656 227.109375 309.738281 226.109375 306.0625 225.773438 C 305.832031 225.761719 305.597656 225.742188 305.371094 225.722656 C 305.140625 225.695312 304.910156 225.679688 304.675781 225.675781 C 304.441406 225.675781 304.207031 225.675781 303.976562 225.664062 L 303.625 225.648438 L 0.289062 225.648438 L 0.289062 210.359375 L 303.175781 210.359375 L 305.335938 210.410156 C 305.6875 210.410156 306.035156 210.457031 306.386719 210.476562 L 307.433594 210.558594 C 313.058594 211.070312 318.386719 212.605469 323.425781 215.15625 C 325.925781 216.429688 328.285156 217.921875 330.503906 219.636719 C 332.722656 221.355469 334.765625 223.261719 336.625 225.359375 C 338.484375 227.460938 340.132812 229.714844 341.570312 232.125 C 343.003906 234.535156 344.203125 237.058594 345.164062 239.691406 C 346.121094 242.320312 346.816406 245.019531 347.246094 247.78125 L 347.292969 248.039062 L 347.324219 248.300781 L 347.386719 248.820312 L 347.519531 249.859375 C 347.578125 250.207031 347.59375 250.558594 347.617188 250.90625 L 347.699219 251.957031 L 347.742188 252.480469 C 347.753906 252.65625 347.742188 252.832031 347.753906 253.007812 L 347.78125 254.0625 L 347.796875 254.589844 L 347.796875 345.070312 L 347.816406 346.023438 L 347.863281 347.9375 C 347.882812 348.574219 347.886719 349.214844 347.945312 349.851562 L 348.085938 351.761719 L 348.164062 352.71875 C 348.191406 353.039062 348.207031 353.359375 348.253906 353.675781 C 348.488281 355.90625 348.820312 358.121094 349.238281 360.324219 C 349.660156 362.527344 350.167969 364.710938 350.769531 366.871094 C 351.371094 369.035156 352.058594 371.167969 352.835938 373.269531 C 353.613281 375.375 354.476562 377.445312 355.425781 379.476562 C 356.371094 381.511719 357.402344 383.5 358.515625 385.449219 C 359.625 387.394531 360.816406 389.296875 362.085938 391.144531 C 363.355469 392.996094 364.699219 394.789062 366.117188 396.527344 C 367.535156 398.265625 369.023438 399.941406 370.578125 401.558594 C 372.132812 403.171875 373.753906 404.722656 375.4375 406.203125 C 377.121094 407.6875 378.863281 409.09375 380.664062 410.433594 C 382.464844 411.769531 384.316406 413.03125 386.222656 414.21875 C 388.128906 415.402344 390.078125 416.503906 392.074219 417.527344 C 394.070312 418.550781 396.105469 419.492188 398.179688 420.347656 C 400.253906 421.203125 402.359375 421.972656 404.496094 422.652344 C 406.632812 423.332031 408.792969 423.925781 410.980469 424.429688 C 413.167969 424.929688 415.371094 425.34375 417.589844 425.664062 L 420.449219 426.027344 L 420.925781 426.085938 L 421.402344 426.125 C 422.675781 426.222656 423.953125 426.324219 425.226562 426.40625 C 426.503906 426.445312 427.777344 426.476562 429.054688 426.503906 L 598.367188 426.503906 Z M 598.367188 441.785156 "/><g clip-rule="nonzero" clip-path="url(#82fd780c23)"><path style=" stroke:none;fill-rule:nonzero;fill:#8eb4ac;fill-opacity:1;" d="M 598.367188 467.929688 L 428.964844 467.929688 C 427.046875 467.902344 425.128906 467.851562 423.214844 467.785156 C 421.296875 467.675781 419.375 467.523438 417.457031 467.359375 L 416.738281 467.296875 L 416.019531 467.214844 L 414.582031 467.042969 C 413.621094 466.921875 412.664062 466.796875 411.707031 466.667969 C 408.835938 466.253906 405.984375 465.738281 403.152344 465.121094 C 400.316406 464.503906 397.507812 463.789062 394.722656 462.972656 C 391.941406 462.15625 389.1875 461.242188 386.46875 460.230469 C 383.75 459.222656 381.070312 458.117188 378.429688 456.914062 C 375.789062 455.714844 373.195312 454.421875 370.644531 453.039062 C 368.097656 451.65625 365.597656 450.183594 363.152344 448.621094 C 360.707031 447.0625 358.320312 445.414062 355.992188 443.6875 C 353.664062 441.957031 351.398438 440.148438 349.199219 438.257812 C 347 436.367188 344.867188 434.402344 342.804688 432.363281 C 340.746094 430.320312 338.757812 428.210938 336.84375 426.027344 C 334.933594 423.847656 333.101562 421.601562 331.347656 419.289062 C 329.59375 416.980469 327.925781 414.609375 326.339844 412.179688 C 324.753906 409.75 323.257812 407.269531 321.847656 404.734375 C 320.4375 402.199219 319.117188 399.617188 317.890625 396.988281 C 316.664062 394.359375 315.53125 391.691406 314.492188 388.984375 C 313.457031 386.273438 312.515625 383.53125 311.671875 380.757812 C 309.40625 373.328125 307.871094 365.753906 307.0625 358.03125 C 307 357.550781 306.964844 357.070312 306.921875 356.59375 L 306.804688 355.152344 C 306.730469 354.191406 306.664062 353.234375 306.605469 352.273438 C 306.527344 351.3125 306.511719 350.355469 306.480469 349.398438 C 306.445312 348.441406 306.425781 347.480469 306.410156 346.523438 L 306.386719 345.085938 L 306.386719 254.855469 C 306.386719 254.773438 306.386719 254.828125 306.386719 254.804688 C 306.382812 254.789062 306.382812 254.773438 306.386719 254.757812 C 306.378906 254.726562 306.378906 254.695312 306.386719 254.664062 C 306.386719 254.648438 306.398438 254.628906 306.398438 254.613281 C 306.390625 254.601562 306.382812 254.589844 306.382812 254.574219 C 306.375 254.546875 306.375 254.519531 306.382812 254.492188 C 306.382812 254.464844 306.398438 254.4375 306.382812 254.414062 C 306.371094 254.394531 306.367188 254.367188 306.367188 254.34375 C 306.367188 254.332031 306.367188 254.320312 306.367188 254.308594 L 306.367188 254.289062 C 306.367188 254.289062 306.367188 254.289062 306.355469 254.273438 C 306.339844 254.105469 306.296875 253.945312 306.234375 253.789062 C 306.09375 253.4375 305.894531 253.117188 305.636719 252.835938 C 305.367188 252.53125 305.050781 252.285156 304.6875 252.097656 C 304.375 251.945312 304.050781 251.847656 303.703125 251.816406 C 303.675781 251.820312 303.648438 251.820312 303.621094 251.816406 C 303.59375 251.816406 303.570312 251.785156 303.535156 251.800781 C 303.503906 251.808594 303.472656 251.808594 303.441406 251.800781 L 0.289062 251.800781 L 0.289062 236.511719 L 303.738281 236.511719 C 303.890625 236.511719 304.039062 236.511719 304.1875 236.511719 C 304.335938 236.511719 304.484375 236.523438 304.628906 236.546875 C 304.773438 236.558594 304.917969 236.570312 305.066406 236.574219 C 307.359375 236.785156 309.535156 237.410156 311.589844 238.449219 C 313.679688 239.515625 315.507812 240.929688 317.0625 242.6875 C 318.609375 244.425781 319.78125 246.390625 320.582031 248.574219 C 320.976562 249.640625 321.257812 250.738281 321.425781 251.863281 L 321.449219 251.96875 L 321.449219 252.078125 L 321.472656 252.292969 C 321.488281 252.4375 321.507812 252.578125 321.53125 252.722656 C 321.558594 252.863281 321.570312 253.011719 321.566406 253.15625 C 321.566406 253.304688 321.589844 253.449219 321.605469 253.59375 L 321.628906 253.8125 C 321.628906 253.886719 321.628906 253.964844 321.628906 254.035156 C 321.628906 254.1875 321.628906 254.335938 321.628906 254.484375 L 321.640625 254.710938 L 321.640625 254.765625 C 321.644531 254.796875 321.644531 254.824219 321.640625 254.851562 L 321.640625 345.0625 L 321.660156 346.324219 L 321.726562 348.84375 C 321.75 349.683594 321.765625 350.523438 321.835938 351.363281 L 322.019531 353.886719 L 322.121094 355.148438 C 322.160156 355.570312 322.1875 355.988281 322.242188 356.40625 C 322.558594 359.355469 322.992188 362.285156 323.546875 365.195312 C 324.101562 368.109375 324.773438 370.992188 325.566406 373.847656 C 326.359375 376.703125 327.269531 379.523438 328.296875 382.304688 C 329.324219 385.082031 330.460938 387.816406 331.714844 390.503906 C 332.96875 393.191406 334.328125 395.820312 335.796875 398.394531 C 337.265625 400.96875 338.839844 403.476562 340.515625 405.921875 C 342.195312 408.367188 343.96875 410.738281 345.84375 413.035156 C 347.714844 415.332031 349.679688 417.546875 351.738281 419.683594 C 353.792969 421.816406 355.933594 423.863281 358.160156 425.820312 C 360.382812 427.78125 362.6875 429.640625 365.066406 431.410156 C 367.445312 433.175781 369.894531 434.84375 372.410156 436.410156 C 374.925781 437.972656 377.503906 439.433594 380.144531 440.785156 C 382.78125 442.136719 385.46875 443.378906 388.210938 444.507812 C 390.949219 445.636719 393.730469 446.652344 396.554688 447.550781 C 399.378906 448.453125 402.238281 449.234375 405.125 449.898438 C 408.015625 450.5625 410.925781 451.105469 413.859375 451.527344 L 416.375 451.851562 L 417.632812 452.003906 L 418.261719 452.082031 L 418.894531 452.132812 C 420.574219 452.273438 422.257812 452.40625 423.9375 452.503906 C 425.617188 452.5625 427.296875 452.605469 428.976562 452.632812 L 598.367188 452.632812 Z M 598.367188 467.929688 "/></g></g></svg>