<svg xmlns="http://www.w3.org/2000/svg" xmlns:xlink="http://www.w3.org/1999/xlink" width="1080" zoomAndPan="magnify" viewBox="0 0 810 1215.749947" height="1621" preserveAspectRatio="xMidYMid meet" version="1.2"><defs><clipPath id="ab8e99b6c5"><path d="M 0.0820312 0 L 809.914062 0 L 809.914062 1181 L 0.0820312 1181 Z M 0.0820312 0 "/></clipPath><clipPath id="d5797d68cd"><path d="M 0.0820312 0 L 637 0 L 637 1181 L 0.0820312 1181 Z M 0.0820312 0 "/></clipPath><clipPath id="42c59a2139"><path d="M 0.0820312 0 L 509 0 L 509 1181 L 0.0820312 1181 Z M 0.0820312 0 "/></clipPath><clipPath id="668303b8d5"><path d="M 0.0820312 0 L 462 0 L 462 1181 L 0.0820312 1181 Z M 0.0820312 0 "/></clipPath></defs><g id="53ca4393ec"><g clip-rule="nonzero" clip-path="url(#ab8e99b6c5)"><path style=" stroke:none;fill-rule:nonzero;fill:#ca3c4a;fill-opacity:1;" d="M 593.894531 104.433594 C 596.5 158.820312 702.671875 134.152344 700.039062 184.015625 C 696.601562 248.976562 588.710938 249.855469 591.484375 299.777344 C 594.253906 349.695312 783.261719 341.464844 783.261719 477.453125 C 783.261719 669.613281 486.546875 687.96875 486.546875 924.832031 C 486.546875 1043.273438 601.566406 1131.621094 687.195312 1180.984375 L -8.097656 1180.984375 L -8.097656 0.0234375 L 809.972656 0.0234375 C 809.710938 55.84375 590.878906 41.292969 593.894531 104.433594 Z M 593.894531 104.433594 "/></g><g clip-rule="nonzero" clip-path="url(#d5797d68cd)"><path style=" stroke:none;fill-rule:nonzero;fill:#ff763d;fill-opacity:1;" d="M 388.90625 935.730469 C 395.550781 1066.234375 456.09375 1141.238281 505.125 1180.984375 L -8.097656 1180.984375 L -8.097656 0.0234375 L 586.378906 0.0234375 C 594.839844 14.433594 599.175781 34.796875 569.96875 48.441406 C 520.460938 71.570312 467.605469 80.453125 475.730469 109.871094 C 485.539062 145.375 584.144531 126.277344 584.144531 186.949219 C 584.144531 247.625 485.183594 237.542969 485.183594 288.558594 C 485.183594 355.527344 628.710938 336.316406 635.839844 476.363281 C 646.214844 680.210938 378.101562 723.429688 388.90625 935.730469 Z M 388.90625 935.730469 "/></g><g clip-rule="nonzero" clip-path="url(#42c59a2139)"><path style=" stroke:none;fill-rule:nonzero;fill:#f2c665;fill-opacity:1;" d="M 188.75 966.828125 C 196.8125 1064.304688 228.550781 1133.976562 260.792969 1180.984375 L -8.097656 1180.984375 L -8.097656 0.0234375 L 462 0.0234375 C 462.066406 9.136719 453.828125 21.871094 410.117188 25.90625 C 339.507812 32.4375 285.984375 48.601562 285.984375 96.398438 C 285.984375 129.972656 320.582031 142.746094 356.488281 150.007812 C 398.503906 158.507812 430.484375 167.296875 430.484375 190.097656 C 430.484375 261.894531 203.957031 232.488281 198.269531 333.777344 C 194.320312 404.097656 263.726562 408.414062 297.34375 401.160156 C 330.960938 393.90625 477.070312 364.867188 504.015625 457.726562 C 550.941406 619.4375 167.859375 714.101562 188.75 966.828125 Z M 188.75 966.828125 "/></g><g clip-rule="nonzero" clip-path="url(#668303b8d5)"><path style=" stroke:none;fill-rule:nonzero;fill:#ffe8c6;fill-opacity:1;" d="M 265.917969 663.746094 C 125.230469 741.746094 47.597656 845.515625 47.597656 970.5625 C 47.597656 1095.605469 146.027344 1179.421875 146.027344 1179.421875 L 144.882812 1180.984375 L -8.097656 1180.984375 L -8.097656 0.0234375 L 334.480469 0.0234375 C 330.574219 5.277344 315.898438 14.355469 266.890625 26.804688 C 185.425781 47.507812 176.351562 66.257812 175.433594 95.320312 C 174.089844 138.078125 210.832031 166.277344 305.777344 172.589844 C 331.972656 174.328125 377.792969 174.382812 377.792969 189.53125 C 377.792969 206.070312 321.980469 213.410156 269.808594 213.410156 C 217.171875 213.410156 108.425781 220.335938 108.425781 331.984375 C 108.425781 441.945312 194.566406 442.777344 252.308594 442.777344 C 310.046875 442.777344 440.796875 398.265625 458.488281 474.785156 C 478.039062 559.375 406.609375 585.746094 265.917969 663.746094 Z M 265.917969 663.746094 "/></g></g></svg>