<svg xmlns="http://www.w3.org/2000/svg" xmlns:xlink="http://www.w3.org/1999/xlink" width="1080" zoomAndPan="magnify" viewBox="0 0 810 1215.749947" height="1621" preserveAspectRatio="xMidYMid meet" version="1.2"><defs><clipPath id="7b857f54d4"><path d="M 154 0 L 656 0 L 656 1215.5 L 154 1215.5 Z M 154 0 "/></clipPath><filter x="0%" y="0%" width="100%" filterUnits="objectBoundingBox" id="1f7c2c61ef" height="100%"><feColorMatrix values="0 0 0 0 1 0 0 0 0 1 0 0 0 0 1 0 0 0 1 0" type="matrix" in="SourceGraphic"/></filter><clipPath id="c35de527d7"><path d="M 2.582031 972 L 169 972 L 169 1214 L 2.582031 1214 Z M 2.582031 972 "/></clipPath><clipPath id="09697dd28a"><path d="M 333 972 L 499.730469 972 L 499.730469 1214 L 333 1214 Z M 333 972 "/></clipPath><clipPath id="0986b8240f"><rect x="0" width="502" y="0" height="1216"/></clipPath></defs><g id="78b78ab50c"><g clip-rule="nonzero" clip-path="url(#7b857f54d4)"><g mask="url(#482a3c5bb0)" transform="matrix(1,0,0,1,154,0.00000000000010264)"><g clip-path="url(#0986b8240f)"><path style=" stroke:none;fill-rule:nonzero;fill:#8eb4ac;fill-opacity:1;" d="M 130.941406 1.589844 L 168.84375 1.589844 L 168.84375 972.242188 L 130.941406 972.242188 Z M 130.941406 1.589844 "/><path style=" stroke:none;fill-rule:nonzero;fill:#e8ae82;fill-opacity:1;" d="M 333.101562 1.589844 L 371 1.589844 L 371 972.242188 L 333.101562 972.242188 Z M 333.101562 1.589844 "/><path style=" stroke:none;fill-rule:nonzero;fill:#a2d6b2;fill-opacity:1;" d="M 181.46875 1.589844 L 219.371094 1.589844 L 219.371094 972.242188 L 181.46875 972.242188 Z M 181.46875 1.589844 "/><path style=" stroke:none;fill-rule:nonzero;fill:#e55330;fill-opacity:1;" d="M 282.546875 1.589844 L 320.449219 1.589844 L 320.449219 972.242188 L 282.546875 972.242188 Z M 282.546875 1.589844 "/><path style=" stroke:none;fill-rule:nonzero;fill:#f1a513;fill-opacity:1;" d="M 232.019531 1.589844 L 269.921875 1.589844 L 269.921875 972.242188 L 232.019531 972.242188 Z M 232.019531 1.589844 "/><g clip-rule="nonzero" clip-path="url(#c35de527d7)"><path style=" stroke:none;fill-rule:nonzero;fill:#8eb4ac;fill-opacity:1;" d="M 91.828125 1213.804688 L 2.582031 1213.804688 L 130.941406 972.242188 L 168.84375 972.242188 Z M 91.828125 1213.804688 "/></g><path style=" stroke:none;fill-rule:nonzero;fill:#a2d6b2;fill-opacity:1;" d="M 219.371094 972.242188 L 193.699219 1213.804688 L 104.480469 1213.804688 L 181.46875 972.242188 Z M 219.371094 972.242188 "/><path style=" stroke:none;fill-rule:nonzero;fill:#f1a513;fill-opacity:1;" d="M 269.921875 972.242188 L 295.59375 1213.804688 L 206.347656 1213.804688 L 232.019531 972.242188 Z M 269.921875 972.242188 "/><path style=" stroke:none;fill-rule:nonzero;fill:#e55330;fill-opacity:1;" d="M 320.449219 972.242188 L 397.464844 1213.804688 L 308.21875 1213.804688 L 282.546875 972.242188 Z M 320.449219 972.242188 "/><g clip-rule="nonzero" clip-path="url(#09697dd28a)"><path style=" stroke:none;fill-rule:nonzero;fill:#e8ae82;fill-opacity:1;" d="M 371 972.242188 L 499.335938 1213.804688 L 410.089844 1213.804688 L 333.101562 972.242188 Z M 371 972.242188 "/></g></g><mask id="482a3c5bb0"><g filter="url(#1f7c2c61ef)"><rect x="0" width="810" y="0" height="1215.749947" style="fill:#000000;fill-opacity:0.65;stroke:none;"/></g></mask></g></g></g></svg>